<svg width="20" height="20" viewBox="0 0 20 20" fill="none" xmlns="http://www.w3.org/2000/svg">
<mask id="mask0_63_419" style="mask-type:alpha" maskUnits="userSpaceOnUse" x="0" y="0" width="20" height="20">
<rect x="20" y="20" width="20" height="20" transform="rotate(-180 20 20)" fill="#D9D9D9"/>
</mask>
<g mask="url(#mask0_63_419)">
<path d="M12.6506 9.99992L6.22112 3.57044C6.09826 3.44758 6.03764 3.30068 6.03925 3.12974C6.04085 2.95879 6.10308 2.81189 6.22594 2.68903C6.3488 2.56617 6.4957 2.50474 6.66665 2.50474C6.83759 2.50474 6.98449 2.56617 7.10735 2.68903L13.4759 9.0528C13.6106 9.18742 13.7089 9.33753 13.7708 9.50313C13.8328 9.66873 13.8638 9.83433 13.8638 9.99992C13.8638 10.1655 13.8328 10.3311 13.7708 10.4967C13.7089 10.6623 13.6106 10.8124 13.4759 10.947L7.10735 17.3156C6.98449 17.4385 6.83679 17.4991 6.66425 17.4975C6.49169 17.4959 6.34398 17.4337 6.22112 17.3108C6.09826 17.188 6.03683 17.0411 6.03683 16.8701C6.03683 16.6992 6.09826 16.5523 6.22112 16.4294L12.6506 9.99992Z" fill="#1C1B1F"/>
</g>
</svg>
