<svg width="20" height="20" viewBox="0 0 20 20" fill="none" xmlns="http://www.w3.org/2000/svg">
<mask id="mask0_89_1808" style="mask-type:alpha" maskUnits="userSpaceOnUse" x="0" y="0" width="20" height="20">
<rect width="20" height="20" fill="#D9D9D9"/>
</mask>
<g mask="url(#mask0_89_1808)">
<path d="M8.35708 17.0032C7.55501 17.0032 6.86838 16.7176 6.2972 16.1464C5.72602 15.5752 5.44043 14.8886 5.44043 14.0865C5.44043 13.2845 5.72602 12.5978 6.2972 12.0267C6.86838 11.4555 7.55501 11.1699 8.35708 11.1699C8.67652 11.1699 8.97567 11.2174 9.25451 11.3125C9.53336 11.4076 9.78977 11.5502 10.0237 11.7404V4.50322C10.0237 4.08896 10.1712 3.73433 10.4662 3.43933C10.7612 3.14433 11.1159 2.99683 11.5301 2.99683H13.1968C13.5714 2.99683 13.8921 3.13002 14.1588 3.39641C14.4256 3.66281 14.559 3.98306 14.559 4.35714C14.559 4.73122 14.4256 5.05208 14.1588 5.3197C13.8921 5.58733 13.5714 5.72114 13.1968 5.72114H11.2737V14.0865C11.2737 14.8886 10.9881 15.5752 10.417 16.1464C9.84577 16.7176 9.15914 17.0032 8.35708 17.0032Z" fill="white"/>
</g>
</svg>
