<svg width="35" height="35" viewBox="0 0 35 35" fill="none" xmlns="http://www.w3.org/2000/svg">
<rect x="6" width="20.1144" height="1.25715" fill="black"/>
<rect x="6" y="7.54309" width="11.3143" height="1.25715" fill="black"/>
<rect x="6" y="15.0858" width="11.3143" height="1.25715" fill="black"/>
<path d="M28.6708 11.7272C29.2893 12.1201 29.2893 13.0227 28.6708 13.4155L22.9646 17.0394C22.2989 17.4623 21.4285 16.984 21.4285 16.1953L21.4285 8.94748C21.4285 8.1588 22.2989 7.68052 22.9646 8.10333L28.6708 11.7272Z" fill="black"/>
<path d="M7.8125 25.1094V33.791H7.07031V29.2793H5.88867V33.3516H5.15625V25.2949H5.88867V28.625H7.07031V25.1094H7.8125ZM0.263672 31.4082C1.51367 30.7197 2.18262 29.2451 2.17773 27.4824V26.7891H0.46875V26.1445H4.53125V26.7891H2.91992V27.4824C2.91992 29.0693 3.5791 30.4707 4.81445 31.1055L4.35547 31.7012C3.48145 31.2227 2.87598 30.3682 2.56836 29.3086C2.27051 30.5146 1.65527 31.4619 0.742188 31.9941L0.263672 31.4082ZM11.582 26.8379C11.5869 27.7998 12.2559 28.7715 13.3691 29.1914L12.9688 29.7773C12.1338 29.4551 11.5332 28.835 11.2207 28.0879C10.9033 28.9131 10.2783 29.6504 9.42383 30.0215L9.00391 29.4258C10.1465 28.9277 10.8447 27.8047 10.8496 26.8379V25.6562H11.582V26.8379ZM10.5859 32.2285C10.5762 31.2471 11.6895 30.6709 13.4961 30.6758C15.293 30.6709 16.4111 31.2471 16.416 32.2285C16.4111 33.2002 15.293 33.7715 13.4961 33.7715C11.6895 33.7715 10.5762 33.2002 10.5859 32.2285ZM11.3477 32.2285C11.3379 32.8193 12.1631 33.1807 13.4961 33.1758C14.8145 33.1807 15.6445 32.8193 15.6543 32.2285C15.6445 31.6279 14.8145 31.2666 13.4961 31.2617C12.1631 31.2666 11.3379 31.6279 11.3477 32.2285ZM13.7598 30.207V25.2852H14.4824V27.4531H15.6348V25.1191H16.3672V30.4805H15.6348V28.0879H14.4824V30.207H13.7598ZM24.541 25.4805V28.4102H21.9727V29.5234H25.5469V30.1484H17.6367V29.5234H21.2109V28.4102H18.6621V25.4805H24.541ZM18.5156 31.6719V31.0566H24.5703V33.791H23.7988V31.6719H18.5156ZM19.4141 27.7949H23.7793V26.0957H19.4141V27.7949ZM34.2188 29.8945V30.5293H26.2695V29.8945H29.8633V28.9766H27.3047V26.8574H32.4219V25.959H27.2754V25.334H33.1934V27.4336H28.0664V28.3613H33.3789V28.9766H30.6152V29.8945H34.2188ZM27.1582 31.8184V31.1934H33.2422V33.7129H32.4707V31.8184H27.1582Z" fill="black"/>
</svg>
