<svg width="20" height="20" viewBox="0 0 20 20" fill="none" xmlns="http://www.w3.org/2000/svg">
<mask id="mask0_89_1714" style="mask-type:alpha" maskUnits="userSpaceOnUse" x="0" y="0" width="20" height="20">
<rect width="20" height="20" fill="#D9D9D9"/>
</mask>
<g mask="url(#mask0_89_1714)">
<path d="M15.1699 18.1025C14.9923 18.1025 14.8437 18.0425 14.724 17.9224C14.6044 17.8024 14.5445 17.6536 14.5445 17.4762C14.5445 17.3927 14.5603 17.3096 14.5917 17.227C14.6232 17.1444 14.6651 17.0772 14.7176 17.0256C15.3202 16.423 15.7876 15.7342 16.1198 14.9591C16.4521 14.184 16.6182 13.3475 16.6182 12.4497C16.6182 11.5655 16.4521 10.7337 16.1198 9.95429C15.7876 9.17492 15.3202 8.48394 14.7176 7.88137C14.6651 7.82936 14.6232 7.76174 14.5917 7.6785C14.5603 7.59525 14.5445 7.51201 14.5445 7.42877C14.5445 7.2519 14.6046 7.10363 14.7246 6.98398C14.8446 6.86431 14.9934 6.80448 15.1708 6.80448C15.2544 6.80448 15.3352 6.82256 15.4133 6.85871C15.4914 6.89485 15.5565 6.93874 15.6086 6.99038C16.3266 7.70832 16.8826 8.53578 17.2769 9.47275C17.6711 10.4097 17.8682 11.4022 17.8682 12.4502C17.8682 13.5112 17.6711 14.508 17.2769 15.4407C16.8826 16.3733 16.3266 17.1987 15.6086 17.9166C15.5564 17.9682 15.4911 18.0121 15.4127 18.0483C15.3344 18.0844 15.2534 18.1025 15.1699 18.1025ZM12.9781 15.9118C12.8012 15.9118 12.653 15.8518 12.5333 15.7318C12.4137 15.6117 12.3538 15.463 12.3538 15.2855C12.3538 15.202 12.3719 15.1212 12.4081 15.043C12.4442 14.9649 12.4881 14.8998 12.5397 14.8478C12.8581 14.5294 13.1046 14.1658 13.2793 13.7572C13.454 13.3485 13.5413 12.914 13.5413 12.4535C13.5413 11.993 13.4519 11.5585 13.2729 11.1498C13.0939 10.7412 12.8496 10.3776 12.5397 10.0592C12.4778 10.007 12.4313 9.94174 12.4003 9.8634C12.3693 9.78505 12.3538 9.70409 12.3538 9.62052C12.3538 9.44294 12.4139 9.29432 12.5339 9.17467C12.6539 9.05501 12.8027 8.99519 12.9802 8.99519C13.0637 8.99519 13.1467 9.01067 13.2293 9.04165C13.312 9.07263 13.3791 9.11911 13.4307 9.18108C13.8576 9.60783 14.1911 10.1013 14.4312 10.6614C14.6713 11.2215 14.7913 11.8189 14.7913 12.4535C14.7913 13.0881 14.6713 13.6855 14.4312 14.2456C14.1911 14.8057 13.8576 15.2992 13.4307 15.7259C13.3787 15.7879 13.3111 15.8344 13.2278 15.8653C13.1446 15.8963 13.0614 15.9118 12.9781 15.9118ZM2.08301 17.9166V16.6666C2.7472 16.6666 3.40417 16.6277 4.05392 16.5497C4.70366 16.4717 5.3405 16.3135 5.96445 16.0753C6.02854 16.0486 6.05792 15.9992 6.05259 15.927C6.04724 15.8549 5.99916 15.8082 5.90834 15.7868C5.25877 15.5315 4.73661 15.1244 4.34184 14.5657C3.94706 14.0069 3.74967 13.3814 3.74967 12.6891V11.1218H6.82659C6.90138 11.1218 6.96282 11.0977 7.0109 11.0497C7.05897 11.0016 7.08301 10.9402 7.08301 10.8654V8.70194H9.60703C9.7032 8.70194 9.77665 8.6632 9.8274 8.58573C9.87815 8.50827 9.88216 8.42681 9.83943 8.34133L7.58943 3.76121C7.51037 3.60629 7.49836 3.44924 7.55338 3.29006C7.6084 3.13088 7.71336 3.00909 7.86828 2.92469C8.02318 2.84028 8.1829 2.82693 8.34742 2.88463C8.51195 2.94232 8.63374 3.04862 8.7128 3.20352L10.9708 7.79167C11.2165 8.29379 11.1952 8.77936 10.9068 9.24837C10.6184 9.71739 10.1921 9.9519 9.62786 9.9519H8.33299V10.9134C8.33299 11.3184 8.19116 11.6626 7.90751 11.9463C7.62386 12.2299 7.27958 12.3718 6.87468 12.3718H4.99965V12.7051C4.99965 13.2019 5.15965 13.6343 5.47963 14.0024C5.79961 14.3704 6.19945 14.617 6.67915 14.742L6.92915 14.8045C7.42595 14.9327 7.69971 15.2585 7.75045 15.782C7.8012 16.3055 7.58459 16.6848 7.10061 16.9198C6.32071 17.3034 5.50768 17.5654 4.66153 17.7059C3.81538 17.8464 2.95587 17.9166 2.08301 17.9166Z" fill="white"/>
</g>
</svg>
